<?xml version="1.0" encoding="UTF-8"?>
<svg id="Capa_2" xmlns="http://www.w3.org/2000/svg" viewBox="0 0 860.96 426.56">
  <defs>
    <style>
      .cls-1 {
        fill: #545456;
      }

      .cls-2 {
        fill: #f9fafe;
      }

      .cls-3 {
        fill: #597ce9;
      }
    </style>
  </defs>
  <g>
    <g>
      <path class="cls-3" d="M421.44,255.24v-56.05h6.28l1.98,8.1h-.83v22.98h.83v24.96h-8.27ZM441.86,240.36c-3.64,0-6.81-.87-9.51-2.6-2.7-1.74-4.81-4.17-6.32-7.32-1.52-3.14-2.27-6.81-2.27-10.99s.76-7.94,2.27-11.08c1.51-3.14,3.62-5.59,6.32-7.36,2.7-1.76,5.87-2.65,9.51-2.65s7.01.88,9.79,2.65c2.78,1.76,4.95,4.22,6.49,7.36,1.54,3.14,2.31,6.83,2.31,11.08s-.77,7.85-2.31,10.99c-1.54,3.14-3.71,5.58-6.49,7.32-2.78,1.74-6.05,2.6-9.79,2.6ZM440.62,233.25c3.41,0,6.17-1.27,8.27-3.8,2.09-2.53,3.14-5.87,3.14-10s-1.05-7.56-3.14-10.13c-2.1-2.56-4.85-3.84-8.27-3.84s-6.09,1.27-8.18,3.8c-2.1,2.54-3.14,5.9-3.14,10.08s1.05,7.55,3.14,10.09c2.09,2.54,4.82,3.8,8.18,3.8Z"/>
      <path class="cls-3" d="M483.11,199.2l1.98,10.91v29.43h-8.27v-40.34h6.28ZM483.85,213.5l-1.98-.91v-6.03l.74-.91c.55-.99,1.42-2.05,2.6-3.18,1.18-1.13,2.58-2.09,4.17-2.89,1.6-.8,3.22-1.2,4.88-1.2.83,0,1.61.06,2.35.17.75.11,1.31.3,1.7.58v7.44h-2.56c-3.75,0-6.48.57-8.19,1.69-1.71,1.13-2.95,2.88-3.72,5.25Z"/>
      <path class="cls-3" d="M531.8,240.36c-4.08,0-7.67-.87-10.79-2.6-3.11-1.74-5.52-4.17-7.23-7.32-1.71-3.14-2.56-6.81-2.56-10.99s.85-7.94,2.56-11.08c1.71-3.14,4.12-5.59,7.23-7.36,3.11-1.76,6.71-2.65,10.79-2.65s7.74.88,10.83,2.65c3.08,1.76,5.49,4.22,7.23,7.36,1.74,3.14,2.6,6.83,2.6,11.08s-.87,7.85-2.6,10.99c-1.74,3.14-4.15,5.58-7.23,7.32-3.09,1.74-6.7,2.6-10.83,2.6ZM531.8,232.43c3.69,0,6.65-1.2,8.89-3.6,2.23-2.4,3.35-5.52,3.35-9.38s-1.12-7.08-3.35-9.51c-2.23-2.42-5.2-3.64-8.89-3.64s-6.57,1.2-8.8,3.6c-2.23,2.4-3.35,5.55-3.35,9.46s1.12,7.07,3.35,9.47c2.23,2.4,5.17,3.6,8.8,3.6Z"/>
      <path class="cls-3" d="M566.1,206.8v-7.61h23.06v7.61h-23.06ZM583.79,240.28c-3.53,0-6.32-1.03-8.39-3.1s-3.1-5.28-3.1-9.63v-28.35l1.57-9.09h6.69v37.61c0,1.54.4,2.7,1.2,3.47.8.77,1.81,1.16,3.02,1.16.94,0,1.76-.05,2.48-.16.72-.11,1.35-.25,1.9-.41v7.69c-.72.22-1.5.41-2.36.58-.86.17-1.86.25-3.02.25Z"/>
      <path class="cls-3" d="M625.04,240.36c-4.08,0-7.67-.87-10.79-2.6-3.12-1.74-5.53-4.17-7.23-7.32-1.71-3.14-2.56-6.81-2.56-10.99s.86-7.94,2.56-11.08c1.71-3.14,4.12-5.59,7.23-7.36,3.11-1.76,6.71-2.65,10.79-2.65s7.74.88,10.83,2.65c3.09,1.76,5.5,4.22,7.23,7.36,1.74,3.14,2.6,6.83,2.6,11.08s-.87,7.85-2.6,10.99c-1.74,3.14-4.15,5.58-7.23,7.32-3.09,1.74-6.69,2.6-10.83,2.6ZM625.04,232.43c3.69,0,6.65-1.2,8.89-3.6,2.23-2.4,3.35-5.52,3.35-9.38s-1.11-7.08-3.35-9.51c-2.23-2.42-5.19-3.64-8.89-3.64s-6.57,1.2-8.8,3.6c-2.23,2.4-3.35,5.55-3.35,9.46s1.12,7.07,3.35,9.47c2.23,2.4,5.17,3.6,8.8,3.6Z"/>
      <path class="cls-3" d="M679.93,240.36c-4.13,0-7.72-.9-10.75-2.69-3.03-1.79-5.37-4.26-7.03-7.4-1.65-3.14-2.48-6.78-2.48-10.91s.83-7.77,2.48-10.91c1.65-3.14,3.99-5.61,7.03-7.4,3.03-1.79,6.61-2.69,10.75-2.69,3.91,0,7.47,1.06,10.66,3.18,3.19,2.12,5.51,4.95,6.94,8.47l-7.85,3.31c-.88-2.31-2.21-4.06-3.97-5.25-1.77-1.18-3.78-1.78-6.04-1.78-3.3,0-6.06,1.14-8.27,3.43-2.2,2.29-3.3,5.5-3.3,9.63s1.1,7.34,3.3,9.63c2.2,2.29,4.96,3.43,8.27,3.43,2.26,0,4.27-.59,6.04-1.78,1.76-1.18,3.09-2.93,3.97-5.25l7.85,3.31c-1.49,3.53-3.82,6.35-6.99,8.47-3.17,2.12-6.71,3.18-10.62,3.18Z"/>
      <path class="cls-3" d="M730.68,240.36c-4.08,0-7.67-.87-10.79-2.6-3.11-1.74-5.52-4.17-7.23-7.32-1.71-3.14-2.56-6.81-2.56-10.99s.85-7.94,2.56-11.08c1.71-3.14,4.12-5.59,7.23-7.36,3.11-1.76,6.71-2.65,10.79-2.65s7.74.88,10.83,2.65c3.08,1.76,5.49,4.22,7.23,7.36,1.74,3.14,2.6,6.83,2.6,11.08s-.87,7.85-2.6,10.99c-1.74,3.14-4.15,5.58-7.23,7.32-3.09,1.74-6.7,2.6-10.83,2.6ZM730.68,232.43c3.69,0,6.65-1.2,8.89-3.6,2.23-2.4,3.35-5.52,3.35-9.38s-1.12-7.08-3.35-9.51c-2.23-2.42-5.2-3.64-8.89-3.64s-6.57,1.2-8.8,3.6c-2.23,2.4-3.35,5.55-3.35,9.46s1.12,7.07,3.35,9.47c2.23,2.4,5.17,3.6,8.8,3.6Z"/>
      <path class="cls-3" d="M774.74,239.95c-1.43,0-2.7-.34-3.8-1.03-1.1-.69-1.97-1.69-2.6-3.02-.64-1.32-.95-2.95-.95-4.88v-47.78h8.1v44.89c0,1.71.43,2.87,1.28,3.47.85.61,1.83.91,2.93.91v6.61c-.72.28-1.49.48-2.31.62-.83.14-1.71.21-2.65.21Z"/>
    </g>
    <g>
      <path class="cls-1" d="M263.08,240.33c-3.63,0-6.83-.87-9.59-2.6-2.76-1.73-4.91-4.16-6.42-7.28-1.52-3.12-2.28-6.73-2.28-10.85s.76-7.72,2.28-10.81c1.52-3.09,3.66-5.49,6.42-7.19,2.76-1.71,5.96-2.56,9.59-2.56s6.69.85,9.35,2.56c2.65,1.71,4.73,4.11,6.22,7.19,1.49,3.09,2.24,6.69,2.24,10.81s-.75,7.74-2.24,10.85c-1.49,3.12-3.57,5.54-6.22,7.28-2.66,1.74-5.77,2.6-9.35,2.6ZM264.3,233.34c3.36,0,6.06-1.25,8.09-3.74,2.03-2.49,3.05-5.8,3.05-9.92s-1.02-7.42-3.05-9.92c-2.03-2.49-4.73-3.74-8.09-3.74s-6.07,1.25-8.13,3.74c-2.06,2.49-3.09,5.77-3.09,9.84s1.03,7.44,3.09,9.96c2.06,2.52,4.77,3.78,8.13,3.78ZM276.98,239.52l-1.95-7.97h.81v-22.6h-.81v-24.8h8.13v55.37h-6.18Z"/>
      <path class="cls-1" d="M319.18,240.33c-4.01,0-7.55-.85-10.61-2.56-3.06-1.71-5.43-4.11-7.11-7.2-1.68-3.09-2.52-6.69-2.52-10.81s.84-7.81,2.52-10.89c1.68-3.09,4.05-5.5,7.11-7.24,3.06-1.73,6.6-2.6,10.61-2.6s7.61.87,10.65,2.6c3.04,1.74,5.41,4.15,7.11,7.24,1.71,3.09,2.56,6.72,2.56,10.89s-.85,7.72-2.56,10.81c-1.71,3.09-4.08,5.49-7.11,7.2-3.04,1.71-6.58,2.56-10.65,2.56ZM319.18,232.53c3.63,0,6.54-1.18,8.74-3.54,2.2-2.36,3.29-5.43,3.29-9.23s-1.1-6.96-3.29-9.35c-2.2-2.38-5.11-3.58-8.74-3.58s-6.46,1.18-8.66,3.54c-2.19,2.36-3.29,5.46-3.29,9.31s1.1,6.95,3.29,9.31c2.2,2.36,5.08,3.54,8.66,3.54Z"/>
      <path class="cls-1" d="M355.28,239.52v-55.37h8.13v24.8h-.81v22.6h.81l-1.95,7.97h-6.18ZM375.36,240.33c-3.58,0-6.7-.87-9.35-2.6-2.66-1.73-4.73-4.16-6.22-7.28-1.49-3.12-2.24-6.73-2.24-10.85s.75-7.72,2.24-10.81c1.49-3.09,3.56-5.49,6.22-7.19,2.65-1.71,5.77-2.56,9.35-2.56s6.9.85,9.63,2.56c2.74,1.71,4.86,4.11,6.38,7.19,1.52,3.09,2.28,6.69,2.28,10.81s-.76,7.74-2.28,10.85c-1.52,3.12-3.65,5.54-6.38,7.28-2.74,1.74-5.95,2.6-9.63,2.6ZM374.14,233.34c3.36,0,6.07-1.26,8.13-3.78,2.06-2.52,3.09-5.84,3.09-9.96s-1.03-7.34-3.09-9.84c-2.06-2.49-4.77-3.74-8.13-3.74s-5.99,1.25-8.05,3.74c-2.06,2.49-3.09,5.8-3.09,9.92s1.03,7.43,3.09,9.92c2.06,2.49,4.74,3.74,8.05,3.74Z"/>
    </g>
  </g>
  <g>
    <circle class="cls-3" cx="144.01" cy="219.24" r="72.4"/>
    <g>
      <path class="cls-2" d="M128.52,235.81c-3.91-4.2-5.86-9.72-5.86-16.57s1.95-12.37,5.86-16.57c2.36-2.54,5.19-4.3,8.45-5.3v-14.34c-4.34.69-8.32,2.04-11.92,4.09-5.45,3.09-9.67,7.38-12.66,12.88-2.99,5.5-4.49,11.96-4.49,19.39s1.49,13.75,4.49,19.25c2.99,5.5,7.21,9.77,12.66,12.81,3.6,2.01,7.58,3.34,11.92,4.02v-14.35c-3.26-1-6.09-2.76-8.45-5.3Z"/>
      <path class="cls-2" d="M175.56,199.99c-3.04-5.5-7.26-9.79-12.66-12.88-3.55-2.03-7.51-3.38-11.85-4.07v14.36c3.28,1.02,6.1,2.79,8.45,5.34,3.91,4.25,5.86,9.79,5.86,16.64s-1.95,12.23-5.86,16.43c-2.35,2.52-5.17,4.27-8.45,5.28v14.36c4.34-.68,8.3-2.01,11.85-4.01,5.4-3.04,9.62-7.31,12.66-12.81,3.04-5.5,4.56-11.91,4.56-19.25s-1.52-13.89-4.56-19.39Z"/>
      <circle class="cls-2" cx="144.01" cy="219.24" r="9"/>
    </g>
  </g>
</svg>